<svg xmlns="http://www.w3.org/2000/svg" width="36" height="36" viewBox="0 0 36 36">
  <defs>
    <style>
      .cls-1 {
        fill: #fff;
        stroke: #707070;
        opacity: 0;
      }

      .cls-2 {
        fill: #2a77ff;
      }

      .cls-3 {
        fill: #5592fe;
      }

      .cls-4 {
        fill: #68b5ff;
      }

      .cls-5 {
        fill: #a6d5ff;
      }

      .cls-6 {
        stroke: none;
      }

      .cls-7 {
        fill: none;
      }
    </style>
  </defs>
  <g id="组_2158" data-name="组 2158" transform="translate(-305 -348.26)">
    <g id="矩形_898" data-name="矩形 898" class="cls-1" transform="translate(305 348.26)">
      <rect class="cls-6" width="36" height="36"/>
      <rect class="cls-7" x="0.5" y="0.5" width="35" height="35"/>
    </g>
    <g id="组_2157" data-name="组 2157" transform="translate(305 349.922)">
      <g id="组_2155" data-name="组 2155" transform="translate(1.173 0)">
        <path id="路径_897" data-name="路径 897" class="cls-2" d="M259.691,254.1s-.312,2.114-1.3,7.234c-1.077,5.6-.019,12.627,8.36,15.384a11.467,11.467,0,0,0,2.523.531c.346.034.692.049,1.033.049a10.64,10.64,0,0,0,10.7-11.4c-.477-6.109-5.787-11.414-19.009-11.6C261.255,254.212,260.485,254.154,259.691,254.1Z" transform="translate(-258.047 -254.1)"/>
        <path id="路径_899" data-name="路径 899" class="cls-3" d="M1,0S.813,1.675.213,5.73c-.657,4.433-.012,10,5.1,12.185a5.637,5.637,0,0,0,1.54.421,4.968,4.968,0,0,0,.63.039c3.713,0,6.835-4.017,6.531-9.033C13.724,4.5,10.484.3,2.416.15,1.958.089,1.488.042,1,0Z" transform="translate(31.652 9.703) rotate(79)"/>
        <path id="路径_895" data-name="路径 895" class="cls-3" d="M3.821.427S3.44.555,3.287,1.4,2.428,3.491.319,2.639A1.522,1.522,0,0,1,.288.81C.863-.084,1.641-.277,3.821.427Z" transform="translate(24.335 4.35) rotate(-20)"/>
      </g>
      <rect id="矩形_895" data-name="矩形 895" class="cls-4" width="26.39" height="3.871" rx="1.935" transform="translate(4.118 28.555)"/>
      <rect id="矩形_897" data-name="矩形 897" class="cls-5" width="26.39" height="3.871" rx="1.935" transform="translate(4.118 27.675)"/>
      <path id="路径_900" data-name="路径 900" class="cls-5" d="M.843,15.286s7.948,2.041,10.878-1.941S11.535,0,11.535,0A35.332,35.332,0,0,1,15.9,10.938c.653,3.282-1.664,8.192-2.743,8.3C10.133,19.547,0,16.905,0,16.905Z" transform="matrix(0.966, -0.259, 0.259, 0.966, 0, 13.157)"/>
      <path id="路径_902" data-name="路径 902" class="cls-5" d="M1.1,9.653h0a3.123,3.123,0,0,1-.552-.347A1.256,1.256,0,0,1,0,8.408C0,7.918.49,7.445,1.455,7c.3-.136.573-.261.822-.371A15.4,15.4,0,0,0,8.852,3.478,50.488,50.488,0,0,0,12.6,0h0A27.7,27.7,0,0,1,9.36,4.623a29.4,29.4,0,0,1-3.806,3.04A12.343,12.343,0,0,1,1.1,9.653Z" transform="translate(15.687 14.882) rotate(7)"/>
    </g>
  </g>
</svg>
